<svg width="1024" height="1024" viewBox="0 0 1024 1024" fill="none" xmlns="http://www.w3.org/2000/svg" role="img" aria-label="Titr8 app icon">
  <defs>
    <linearGradient id="tile" x1="0" y1="0" x2="1024" y2="1024" gradientUnits="userSpaceOnUse">
      <stop offset="0" stop-color="#14b8a6"></stop>
      <stop offset="1" stop-color="#0f766e"></stop>
    </linearGradient>
    <linearGradient id="drop" x1="512" y1="196" x2="512" y2="806" gradientUnits="userSpaceOnUse">
      <stop offset="0" stop-color="#ffffff"></stop>
      <stop offset="1" stop-color="#e9fbf7"></stop>
    </linearGradient>
  </defs>

  
  <rect x="0" y="0" width="1024" height="1024" rx="232" fill="url(#tile)"></rect>
  
  <rect x="0" y="0" width="1024" height="512" rx="232" fill="#ffffff" opacity="0.06"></rect>

  
  <path d="M512 196 C512 196 760 470 760 604 A248 248 0 1 1 264 604 C264 470 512 196 512 196 Z" fill="url(#drop)"></path>

  
  <g fill="#0d9488">
    <rect x="476" y="486" width="72" height="256" rx="20"></rect>
    <rect x="384" y="578" width="256" height="72" rx="20"></rect>
  </g>

  
  <path d="M360 690 H452 L486 640 L540 748 L574 690 H664" fill="none" stroke="#14b8a6" stroke-width="20" stroke-linecap="round" stroke-linejoin="round" opacity="0.0"></path>
</svg>